<?xml version="1.0" standalone="no"?>
<svg xmlns="http://www.w3.org/2000/svg" viewBox="0 0 183.601 29" width="183.601" height="29"><g fill="#185fc9" color="#185fc9" transform="translate(0, 0) scale(0.29)"><svg width="100.0" height="100.0" x="0.0" y="0.0" viewBox="0 0 100 100"><g><path fill-rule="evenodd" clip-rule="evenodd" d="M47.102,0c1.928,0,3.856,0,5.784,0c8.338,0.642,15.042,2.917,20.99,5.95   c-9.545,9.958-19.296,19.708-29.253,29.252c-2.969-3.846-6.214-6.932-13.221-6.279c-6.848,0.638-12.008,6.789-12.065,13.552   c-0.093,11.1,12.636,17.426,21.981,11.239c2.455-1.625,4.708-4.378,6.941-6.611c6.658-6.659,13.369-13.473,19.997-20.164   c5.471,4.927,10.706,10.542,16.196,16.032c0.574,0.574,2.305,1.916,2.314,2.148c0.021,0.503-3.571,3.738-3.967,4.132   c-4.035,4.035-8.129,8.161-12.23,11.9c-2.845-5.982-12.565-8.104-18.84-4.297c-3.834,2.326-6.286,6.06-6.446,11.238   c-0.221,7.125,4.855,13.32,11.9,14.047c9.767,1.009,13.735-5.969,18.51-10.742c8.042-8.042,16.394-16.425,24.295-23.963   c0.308,16.392-5.383,28.214-13.388,36.524c-8.017,8.322-18.679,14.98-33.715,16.03c-1.928,0-3.855,0-5.784,0   c-14.023-1.231-24.828-6.812-32.558-14.543C6.814,77.715,1.225,66.916,0,52.887c0-1.929,0-3.857,0-5.785   C0.812,33.583,7.182,22,14.709,14.544C22.682,6.645,33.328,1.089,47.102,0z"></path></g></svg></g><line x1="41" y1="1" x2="41" y2="28" stroke="#000000" stroke-linecap="round"></line><path fill="#000000" fill-rule="nonzero" d="M4.70 17.21L4.70 17.21Q3.38 17.21 2.32 16.55Q1.25 15.89 0.62 14.78Q0 13.68 0 12.31L0 12.31L0.02 4.82Q0.02 3.50 0.64 2.41Q1.25 1.32 2.32 0.66Q3.38 0 4.70 0L4.70 0Q6.02 0 7.08 0.65Q8.14 1.30 8.76 2.39Q9.38 3.48 9.38 4.82L9.38 4.82L9.38 5.93Q9.38 6.02 9.29 6.02L9.29 6.02L6.60 6.02Q6.50 6.02 6.50 5.93L6.50 5.93L6.50 4.82Q6.50 4.03 5.99 3.46Q5.47 2.88 4.70 2.88L4.70 2.88Q3.84 2.88 3.38 3.47Q2.93 4.06 2.93 4.82L2.93 4.82L2.93 12.31Q2.93 13.20 3.44 13.75Q3.96 14.30 4.70 14.30L4.70 14.30Q5.47 14.30 5.99 13.69Q6.50 13.08 6.50 12.31L6.50 12.31L6.50 11.21Q6.50 11.11 6.60 11.11L6.60 11.11L9.31 11.11Q9.41 11.11 9.41 11.21L9.41 11.21L9.41 12.31Q9.41 13.68 8.77 14.78Q8.14 15.89 7.08 16.55Q6.02 17.21 4.70 17.21ZM15.60 17.21L15.60 17.21Q14.30 17.21 13.24 16.55Q12.17 15.89 11.52 14.80Q10.87 13.70 10.87 12.38L10.87 12.38L10.90 4.78Q10.90 3.46 11.53 2.38Q12.17 1.30 13.25 0.65Q14.33 0 15.60 0L15.60 0Q16.90 0 17.95 0.65Q19.01 1.30 19.64 2.38Q20.28 3.46 20.28 4.78L20.28 4.78L20.30 12.38Q20.30 13.70 19.67 14.80Q19.03 15.89 17.96 16.55Q16.90 17.21 15.60 17.21ZM15.60 14.30L15.60 14.30Q16.32 14.30 16.86 13.72Q17.40 13.13 17.40 12.38L17.40 12.38L17.38 4.78Q17.38 3.98 16.87 3.43Q16.37 2.88 15.60 2.88L15.60 2.88Q14.86 2.88 14.33 3.42Q13.80 3.96 13.80 4.78L13.80 4.78L13.80 12.38Q13.80 13.18 14.33 13.74Q14.86 14.30 15.60 14.30ZM24.74 16.97L22.34 16.97Q22.15 16.97 22.15 16.80L22.15 16.80L22.13 0.46Q22.13 0.26 22.32 0.26L22.32 0.26L24.48 0.26L28.54 9.72L28.42 0.46Q28.42 0.26 28.63 0.26L28.63 0.26L31.01 0.26Q31.15 0.26 31.15 0.46L31.15 0.46L31.18 16.82Q31.18 16.97 31.06 16.97L31.06 16.97L28.94 16.97L24.79 8.14L24.96 16.78Q24.96 16.97 24.74 16.97L24.74 16.97ZM37.68 17.21L37.68 17.21Q36.36 17.21 35.29 16.55Q34.22 15.89 33.60 14.78Q32.98 13.68 32.98 12.31L32.98 12.31L33 4.82Q33 3.50 33.61 2.41Q34.22 1.32 35.29 0.66Q36.36 0 37.68 0L37.68 0Q39 0 40.06 0.65Q41.11 1.30 41.74 2.39Q42.36 3.48 42.36 4.82L42.36 4.82L42.36 5.93Q42.36 6.02 42.26 6.02L42.26 6.02L39.58 6.02Q39.48 6.02 39.48 5.93L39.48 5.93L39.48 4.82Q39.48 4.03 38.96 3.46Q38.45 2.88 37.68 2.88L37.68 2.88Q36.82 2.88 36.36 3.47Q35.90 4.06 35.90 4.82L35.90 4.82L35.90 12.31Q35.90 13.20 36.42 13.75Q36.94 14.30 37.68 14.30L37.68 14.30Q38.45 14.30 38.96 13.69Q39.48 13.08 39.48 12.31L39.48 12.31L39.48 11.21Q39.48 11.11 39.58 11.11L39.58 11.11L42.29 11.11Q42.38 11.11 42.38 11.21L42.38 11.21L42.38 12.31Q42.38 13.68 41.75 14.78Q41.11 15.89 40.06 16.55Q39 17.21 37.68 17.21ZM51.98 16.97L44.23 16.97Q44.14 16.97 44.14 16.85L44.14 16.85L44.16 0.36Q44.16 0.26 44.26 0.26L44.26 0.26L51.96 0.26Q52.06 0.26 52.06 0.38L52.06 0.38L52.06 3.07Q52.06 3.17 51.96 3.17L51.96 3.17L47.04 3.17L47.04 6.91L51.96 6.91Q52.06 6.91 52.06 7.01L52.06 7.01L52.08 9.72Q52.08 9.82 51.98 9.82L51.98 9.82L47.04 9.82L47.04 14.02L51.98 14.02Q52.08 14.02 52.08 14.14L52.08 14.14L52.08 16.87Q52.08 16.97 51.98 16.97L51.98 16.97ZM57.02 16.97L54.31 16.97Q54.22 16.97 54.22 16.85L54.22 16.85L54.26 0.36Q54.26 0.26 54.36 0.26L54.36 0.26L59.21 0.26Q60.50 0.26 61.60 0.90Q62.69 1.54 63.34 2.60Q63.98 3.67 63.98 5.02L63.98 5.02Q63.98 5.90 63.72 6.61Q63.46 7.32 63.10 7.81Q62.74 8.30 62.45 8.54L62.45 8.54Q63.74 9.98 63.74 11.93L63.74 11.93L63.77 16.85Q63.77 16.97 63.65 16.97L63.65 16.97L60.94 16.97Q60.84 16.97 60.84 16.90L60.84 16.90L60.84 11.93Q60.84 11.06 60.23 10.43Q59.62 9.79 58.73 9.79L58.73 9.79L57.14 9.79L57.12 16.85Q57.12 16.97 57.02 16.97L57.02 16.97ZM57.14 3.14L57.14 6.91L59.21 6.91Q59.95 6.91 60.53 6.36Q61.10 5.81 61.10 5.02L61.10 5.02Q61.10 4.25 60.54 3.70Q59.98 3.14 59.21 3.14L59.21 3.14L57.14 3.14ZM70.42 16.97L67.70 16.97Q67.61 16.97 67.61 16.85L67.61 16.85L67.61 3.17L64.49 3.17Q64.37 3.17 64.37 3.05L64.37 3.05L64.39 0.36Q64.39 0.26 64.49 0.26L64.49 0.26L73.61 0.26Q73.73 0.26 73.73 0.36L73.73 0.36L73.73 3.05Q73.73 3.17 73.63 3.17L73.63 3.17L70.49 3.17L70.51 16.85Q70.51 16.97 70.42 16.97L70.42 16.97ZM81.26 16.97L78.58 16.97Q78.46 16.97 78.46 16.85L78.46 16.85L78.50 0.36Q78.50 0.26 78.60 0.26L78.60 0.26L83.21 0.26Q85.42 0.26 86.70 1.61Q87.98 2.95 87.98 5.26L87.98 5.26Q87.98 6.96 87.31 8.21Q86.64 9.46 85.56 10.13Q84.48 10.80 83.21 10.80L83.21 10.80L81.38 10.80L81.38 16.85Q81.38 16.97 81.26 16.97L81.26 16.97ZM81.38 3.14L81.38 7.90L83.21 7.90Q83.98 7.90 84.54 7.16Q85.10 6.43 85.10 5.26L85.10 5.26Q85.10 4.32 84.60 3.72Q84.10 3.12 83.21 3.12L83.21 3.12L81.38 3.14ZM97.27 16.97L89.52 16.97Q89.42 16.97 89.42 16.85L89.42 16.85L89.45 0.38Q89.45 0.26 89.57 0.26L89.57 0.26L92.23 0.26Q92.35 0.26 92.35 0.38L92.35 0.38L92.33 14.02L97.27 14.02Q97.39 14.02 97.39 14.14L97.39 14.14L97.39 16.85Q97.39 16.97 97.27 16.97L97.27 16.97ZM102.89 17.21L102.89 17.21Q101.62 17.21 100.54 16.55Q99.46 15.89 98.82 14.78Q98.18 13.68 98.18 12.36L98.18 12.36L98.23 0.36Q98.23 0.26 98.33 0.26L98.33 0.26L101.02 0.26Q101.11 0.26 101.11 0.36L101.11 0.36L101.11 12.36Q101.11 13.18 101.63 13.74Q102.14 14.30 102.89 14.30L102.89 14.30Q103.66 14.30 104.17 13.74Q104.69 13.18 104.69 12.36L104.69 12.36L104.69 0.36Q104.69 0.26 104.78 0.26L104.78 0.26L107.47 0.26Q107.57 0.26 107.57 0.36L107.57 0.36L107.62 12.36Q107.62 13.70 106.98 14.81Q106.34 15.91 105.28 16.56Q104.21 17.21 102.89 17.21ZM113.59 17.21L113.59 17.21Q112.30 17.21 111.23 16.55Q110.16 15.89 109.52 14.80Q108.89 13.70 108.89 12.38L108.89 12.38L108.89 11.28Q108.89 11.16 109.01 11.16L109.01 11.16L111.70 11.16Q111.79 11.16 111.79 11.28L111.79 11.28L111.79 12.38Q111.79 13.18 112.32 13.74Q112.85 14.30 113.59 14.30L113.59 14.30Q114.34 14.30 114.86 13.73Q115.39 13.15 115.39 12.38L115.39 12.38Q115.39 11.50 114.24 10.85L114.24 10.85Q113.86 10.63 113.04 10.18Q112.22 9.72 111.50 9.31L111.50 9.31Q110.18 8.54 109.55 7.38Q108.91 6.22 108.91 4.75L108.91 4.75Q108.91 3.41 109.56 2.34Q110.21 1.27 111.28 0.65Q112.34 0.02 113.59 0.02L113.59 0.02Q114.86 0.02 115.93 0.66Q117 1.30 117.64 2.36Q118.27 3.43 118.27 4.75L118.27 4.75L118.27 6.72Q118.27 6.82 118.18 6.82L118.18 6.82L115.49 6.82Q115.39 6.82 115.39 6.72L115.39 6.72L115.37 4.75Q115.37 3.91 114.84 3.38Q114.31 2.86 113.59 2.86L113.59 2.86Q112.85 2.86 112.32 3.42Q111.79 3.98 111.79 4.75L111.79 4.75Q111.79 5.54 112.13 6.07Q112.46 6.60 113.35 7.08L113.35 7.08Q113.47 7.15 113.82 7.33Q114.17 7.51 114.58 7.74Q114.98 7.97 115.31 8.14Q115.63 8.30 115.70 8.35L115.70 8.35Q116.90 9.02 117.60 10.00Q118.30 10.97 118.30 12.38L118.30 12.38Q118.30 13.75 117.66 14.84Q117.02 15.94 115.96 16.57Q114.89 17.21 113.59 17.21ZM128.81 13.90L126.79 13.90Q126.67 13.90 126.67 13.78L126.67 13.78L126.67 9.48L123.26 9.48Q123.12 9.48 123.12 9.36L123.12 9.36L123.12 7.46Q123.12 7.44 123.16 7.38Q123.19 7.32 123.26 7.32L123.26 7.32L126.67 7.32L126.67 2.95Q126.67 2.90 126.79 2.90L126.79 2.90L128.81 2.90Q128.90 2.90 128.90 2.95L128.90 2.95L128.90 7.32L132.48 7.32Q132.60 7.32 132.60 7.46L132.60 7.46L132.60 9.36Q132.60 9.41 132.55 9.44Q132.50 9.48 132.48 9.48L132.48 9.48L128.90 9.48L128.90 13.78Q128.90 13.90 128.81 13.90L128.81 13.90Z" transform="translate(51, 5.896)"></path></svg>